<?xml version="1.0" standalone="no"?>
<!DOCTYPE svg PUBLIC "-//W3C//DTD SVG 20010904//EN"
 "http://www.w3.org/TR/2001/REC-SVG-20010904/DTD/svg10.dtd">
<svg version="1.0" xmlns="http://www.w3.org/2000/svg"
 width="1005.000000pt" height="1280.000000pt" viewBox="0 0 1005.000000 1280.000000"
 preserveAspectRatio="xMidYMid meet">
<metadata>
Created by potrace 1.15, written by Peter Selinger 2001-2017
</metadata>
<g transform="translate(0.000000,1280.000000) scale(0.100000,-0.100000)"
fill="#ffd663" stroke="none">
<path d="M4815 12790 c-139 -22 -223 -58 -286 -123 -43 -44 -44 -36 0 21 13
19 40 44 59 57 l35 24 -29 8 c-16 4 -105 8 -199 7 -189 0 -281 -13 -438 -65
-58 -19 -122 -32 -172 -35 -142 -9 -445 -67 -734 -139 -405 -102 -665 -196
-996 -362 -632 -316 -1153 -791 -1505 -1372 -284 -470 -458 -1026 -526 -1675
-22 -213 -29 -576 -15 -741 85 -975 633 -2092 1647 -3360 579 -722 1331 -1505
2063 -2145 118 -103 180 -166 258 -265 126 -158 216 -290 279 -410 26 -49 55
-99 64 -110 14 -16 410 -677 544 -906 l27 -47 -25 -85 c-20 -68 -76 -329 -76
-352 0 -3 -23 -5 -50 -5 l-50 0 2 -337 3 -338 230 -11 c127 -6 324 -15 439
-19 l209 -7 -6 169 c-4 92 -10 250 -13 350 l-7 183 -58 0 -59 0 -1 178 c0 97
-4 202 -8 232 l-8 55 285 450 c159 252 319 516 362 600 42 83 105 195 139 250
146 231 184 277 438 527 820 807 1108 1114 1495 1590 1036 1273 1656 2455
1852 3528 50 271 61 403 60 725 0 321 -13 476 -59 753 -188 1108 -808 1969
-1830 2538 -154 86 -510 253 -680 319 -305 118 -657 204 -940 230 -38 3 -124
17 -190 30 -159 32 -366 55 -490 55 -55 0 -157 5 -227 11 -100 9 -153 9 -240
-1 -143 -15 -132 -16 -203 4 -71 21 -282 29 -370 16z m-1074 -166 c-98 -52
-186 -113 -262 -181 -30 -26 -65 -57 -79 -68 l-25 -20 20 24 c28 32 170 151
230 192 55 37 174 99 190 99 6 0 -28 -21 -74 -46z m3024 -21 c179 -62 458
-198 530 -258 19 -16 19 -16 -6 -2 -179 106 -347 184 -544 254 -82 29 -134 50
-115 47 19 -4 80 -22 135 -41z m-2042 -10931 l210 -433 -17 -37 c-16 -34 -19
-35 -29 -17 -6 11 -130 220 -275 465 -146 245 -267 449 -269 453 -3 4 35 6 83
5 l87 -3 210 -433z m117 66 c67 -205 127 -392 135 -415 13 -40 12 -42 -9 -57
l-23 -15 -204 420 c-112 232 -205 425 -207 430 -2 5 38 9 92 9 l95 0 121 -372z
m90 355 c0 -10 30 -192 67 -406 36 -213 64 -389 62 -391 -2 -2 -16 -6 -30 -9
l-25 -6 -132 407 c-73 224 -132 410 -132 415 0 4 43 7 95 7 84 0 95 -2 95 -17z
m400 3 c0 -8 -20 -143 -45 -300 -25 -158 -45 -289 -45 -291 0 -3 -18 -5 -40
-5 l-40 0 0 300 c0 193 -4 300 -10 300 -6 0 -10 -140 -10 -400 l0 -400 -30 0
c-22 0 -31 5 -35 23 -6 24 -135 772 -135 781 0 4 88 6 195 6 160 0 195 -2 195
-14z m658 6 c-7 -20 -573 -911 -578 -911 -3 0 -14 14 -26 32 l-20 33 203 414
c112 227 201 415 198 418 -3 3 -97 -182 -210 -410 -182 -370 -207 -416 -225
-411 -12 3 -20 14 -20 27 0 12 58 196 129 409 71 213 126 387 122 387 -4 0
-61 -161 -126 -357 -65 -197 -121 -362 -125 -366 -4 -4 -6 23 -6 60 1 66 0 68
-25 71 l-25 3 43 277 c24 152 44 289 45 305 l2 27 324 0 c178 0 322 -4 320 -8z
m-712 -906 c58 -19 66 -52 72 -293 l4 -203 -30 0 -30 0 -7 186 c-7 181 -8 186
-31 201 -29 19 -87 12 -115 -13 -27 -24 -24 -66 6 -94 14 -13 25 -28 25 -33 0
-6 -20 -32 -45 -58 -49 -53 -52 -63 -30 -114 12 -31 12 -43 -3 -105 l-17 -69
-64 53 c-82 68 -88 79 -57 108 14 13 30 36 36 52 13 36 -8 73 -51 88 -16 5
-29 11 -29 11 0 1 11 43 24 92 27 100 59 179 76 190 41 26 194 26 266 1z"/>
</g>
</svg>
